<svg width="168" height="46" viewBox="0 0 168 46" fill="none" xmlns="http://www.w3.org/2000/svg">
<path d="M10.3989 0H35.5055C41.2451 0 45.9043 4.65925 45.9043 10.3989V35.5055C45.9043 41.2451 41.2451 45.9043 35.5055 45.9043H10.3989C4.65925 45.9043 0 41.2451 0 35.5055V10.3989C0 4.65925 4.65925 0 10.3989 0Z" fill="#053786"/>
<path d="M68.1857 16.6106C69.5729 15.3578 70.2665 13.778 70.2665 11.8715C70.2665 9.96493 69.4985 8.41245 67.9623 7.21405C67.1815 6.59487 66.1738 6.1028 64.9409 5.73783C63.708 5.37468 62.1319 5.19128 60.2126 5.19128C58.2934 5.19128 56.0255 5.4001 53.4126 5.81772V32.455C56.0001 32.8726 58.4405 33.0814 60.7392 33.0814C63.038 33.0814 64.9736 32.8654 66.5497 32.435C68.1257 32.0047 69.4095 31.3946 70.3991 30.6065C71.3887 29.8185 72.1095 28.8725 72.5617 27.7667C73.0138 26.6627 73.2389 25.3317 73.2389 23.7756C73.2389 22.2195 72.8286 20.8014 72.006 19.5213C71.1036 18.0941 69.8307 17.1227 68.1857 16.6106ZM58.7673 9.5582C59.4536 9.4783 60.3107 9.43654 61.333 9.43654C63.7588 9.43654 64.9699 10.4679 64.9699 12.5288C64.9699 13.5129 64.7266 14.281 64.2418 14.833C63.9458 15.1707 63.5246 15.4485 62.978 15.6719C62.4315 15.8934 61.7361 16.006 60.8863 16.006C60.0365 16.006 59.3302 15.9588 58.7637 15.8643V9.5582H58.7673ZM66.4679 27.3218C65.9287 27.7522 65.2659 28.0935 64.4779 28.3423C63.6898 28.591 62.7765 28.7163 61.7397 28.7163C60.7029 28.7163 59.7115 28.5947 58.7691 28.3532V20.411C59.6316 20.2621 60.6284 20.1895 61.7597 20.1895C65.9904 20.1895 68.1058 21.4351 68.1058 23.9282C68.1058 25.3027 67.561 26.4339 66.4698 27.3236L66.4679 27.3218Z" fill="#002663"/>
<path d="M87.4236 11.0544C84.0281 11.0544 81.279 12.1257 79.1782 14.2683C78.194 15.2797 77.4332 16.4581 76.894 17.8054C76.3547 19.1527 76.0859 20.6144 76.0859 22.1905C76.0859 25.3154 77.2099 27.8829 79.4614 29.8911C81.6985 31.8848 84.5274 32.8817 87.9501 32.8817C88.5693 32.8817 89.2157 32.8417 89.8912 32.76C92.1809 32.4913 93.8387 32.0065 94.8628 31.3056L95.0843 28.1534C95.1242 27.5615 95.1587 26.9805 95.186 26.4158C94.9844 26.5901 94.6812 26.7789 94.2763 26.9823C92.7401 27.7503 90.9008 28.1353 88.76 28.1353C86.6192 28.1353 85.0486 27.734 83.7684 26.9332C82.4883 26.1325 81.673 25.0104 81.3226 23.5686H88.4368C92.5731 23.5686 95.3149 23.3798 96.6622 23.0021C96.8238 22.6117 96.9055 21.8836 96.9055 20.8196C96.9055 18.0433 96.0503 15.7409 94.3398 13.9088C92.6021 12.0095 90.2979 11.0598 87.429 11.0598L87.4236 11.0544ZM90.3342 19.7047L88.6764 19.7646C88.0155 19.7773 87.3419 19.7846 86.6555 19.7846H85.5043C85.0467 19.7846 84.5674 19.7773 84.0699 19.7646H82.5737C82.1016 19.7519 81.7039 19.7374 81.3807 19.7247C81.555 19.0782 81.8056 18.4845 82.1288 17.947C83.1928 16.1821 84.7489 15.2996 86.7971 15.2996C89.3973 15.2996 90.9734 16.7486 91.5254 19.6448C91.1749 19.672 90.7773 19.692 90.3324 19.7047H90.3342Z" fill="#002663"/>
<path d="M119.679 31.3837C119.612 30.9261 119.577 29.5588 119.577 27.2819V19.238C119.577 16.7867 118.916 14.8094 117.596 13.3059C116.276 11.8043 114.511 11.0526 112.301 11.0526C110.28 11.0526 108.381 11.7861 106.602 13.2551V11.4575H101.69V32.5766H106.763C106.654 32.0373 106.602 31.1749 106.602 29.9892V18.45C107.8 16.6179 109.289 15.7009 111.068 15.7009C113.467 15.7009 114.665 17.6746 114.665 21.6221V32.6365C115.394 32.5966 115.973 32.5766 116.403 32.5766H117.818C118.317 32.5766 119.11 32.6238 120.202 32.7183L120.242 32.6365C120.16 32.5294 120.064 32.4078 119.949 32.2734C119.835 32.139 119.744 31.8431 119.677 31.3837H119.679Z" fill="#002663"/>
<path d="M144.778 29.4844C144.281 28.7563 143.538 27.6124 142.556 26.049L138.009 19.8445L145.971 11.4575H139.97L130.735 21.3806V3.67694H125.783V32.5767H130.877C130.782 31.9575 130.735 31.0678 130.735 29.9093V27.7467L134.575 23.6649L140.882 32.8799C141.729 32.6783 142.746 32.5767 143.934 32.5767H147.126C146.857 32.2934 146.519 31.8903 146.115 31.3637L144.78 29.4844H144.778Z" fill="#002663"/>
<path d="M162.179 11.4574L157.672 23.663L152.822 11.4574H147.164L154.905 29.0794L153.975 31.3219C152.655 34.5013 150.99 36.9072 148.983 38.5359L147.651 39.6072L152.866 41.4266C155.17 39.5945 158.349 33.9094 162.404 24.3693L165.434 16.8721C166.444 14.2319 167.299 12.4252 168 11.4556H162.18L162.179 11.4574Z" fill="#002663"/>
<path d="M20.5235 40.4861L35.0332 31.1694C37.9112 29.321 37.9112 25.1157 35.0332 23.2672L20.5235 13.9505C17.3985 11.9441 13.2913 14.1884 13.2913 17.9016C13.2913 18.9439 13.7053 19.9444 14.4425 20.6816L20.9774 27.2165L14.4425 33.7514C13.7053 34.4886 13.2913 35.4891 13.2913 36.5314C13.2913 40.2446 17.3985 42.4889 20.5235 40.4825V40.4861Z" fill="url(#paint0_linear_2_1159)"/>
<path style="mix-blend-mode:multiply" d="M20.5235 13.9523C17.3985 11.9459 13.2913 14.1902 13.2913 17.9035C13.2913 18.9457 13.7053 19.9462 14.4425 20.6834L20.9774 27.2183C20.9774 27.2183 27.7883 21.0302 20.5216 13.9505L20.5235 13.9523Z" fill="url(#paint1_linear_2_1159)"/>
<path style="mix-blend-mode:multiply" d="M35.0352 31.1694C37.9132 29.321 37.9132 25.1157 35.0352 23.2672L20.5254 13.9505C17.4005 11.9441 13.2932 14.1884 13.2932 17.9016C13.2932 18.4227 13.3967 18.933 13.5928 19.4069C13.6418 19.5249 13.6963 19.6411 13.7562 19.7537C13.847 19.9226 13.9505 20.086 14.0649 20.2421C14.1793 20.3983 14.3064 20.5454 14.4444 20.6834L20.9793 27.2183L21.0102 27.2528C21.1101 27.349 21.4605 27.6922 21.8836 28.2424C23.4542 30.2779 26.0235 35.1205 20.5399 40.477L35.0352 31.1712V31.1694Z" fill="url(#paint2_linear_2_1159)"/>
<path d="M19.9643 24.3784L30.4321 17.6583C32.5076 16.3255 32.5076 13.2914 30.4321 11.9586L19.9643 5.23666C17.7109 3.78949 14.7476 5.40734 14.7476 8.08741C14.7476 8.83913 15.0472 9.56181 15.5792 10.0938L20.2929 14.8076L15.5792 19.5213C15.0472 20.0533 14.7476 20.7742 14.7476 21.5277C14.7476 24.206 17.7109 25.8256 19.9643 24.3784Z" fill="url(#paint3_linear_2_1159)"/>
<path style="mix-blend-mode:multiply" d="M19.9643 5.23666C17.7109 3.78949 14.7476 5.40734 14.7476 8.08741C14.7476 8.83913 15.0472 9.56181 15.5792 10.0938L20.2929 14.8076C20.2929 14.8076 25.2064 10.3426 19.9643 5.23666Z" fill="url(#paint4_linear_2_1159)"/>
<path style="mix-blend-mode:multiply" d="M30.4303 17.6583C32.5057 16.3255 32.5057 13.2914 30.4303 11.9586L19.9643 5.23666C17.7109 3.78949 14.7476 5.40734 14.7476 8.08741C14.7476 8.46327 14.822 8.83187 14.9636 9.17323C14.9981 9.25858 15.0381 9.3421 15.0817 9.42381C15.147 9.54547 15.2215 9.66349 15.305 9.77607C15.3885 9.88865 15.4793 9.99396 15.5792 10.0938L20.2929 14.8076L20.3147 14.833C20.3873 14.902 20.6397 15.1507 20.9448 15.5466C22.0778 17.0155 23.9299 20.5091 19.9751 24.3712L30.4303 17.6583Z" fill="url(#paint5_linear_2_1159)"/>
<path d="M53.8555 39.9922H54.2132V41.3122H55.1156V41.5955H54.2132V44.1921H53.8555V41.5955H53.2363V41.3122H53.8555V39.9922Z" fill="black"/>
<path d="M56.9061 44.2738C56.6319 44.2738 56.414 44.1939 56.2488 44.0323C56.0854 43.8707 55.9982 43.66 55.9873 43.4022V41.2759H56.3377V43.2969C56.3486 43.4857 56.4086 43.6419 56.5211 43.7672C56.6337 43.8925 56.8008 43.9596 57.0241 43.9687C57.2129 43.9687 57.3891 43.9197 57.5543 43.8198C57.7177 43.72 57.8521 43.5856 57.9538 43.4131C58.0555 43.2406 58.1063 43.0463 58.1063 42.8284V41.2759H58.4567V44.1921H58.1426L58.1045 43.2751L58.1571 43.4766C58.1081 43.6255 58.0191 43.7617 57.892 43.8834C57.7649 44.005 57.616 44.1013 57.4454 44.1703C57.2729 44.2393 57.0931 44.2756 56.9043 44.2756L56.9061 44.2738Z" fill="black"/>
<path d="M63.2686 44.2501C62.9944 44.2501 62.7456 44.1848 62.5223 44.0522C62.2989 43.9215 62.121 43.7381 61.9885 43.5038C61.8559 43.2696 61.7905 43.0063 61.7905 42.7122C61.7905 42.398 61.8577 42.1275 61.9921 41.8987C62.1264 41.6699 62.3098 41.4938 62.5404 41.3685C62.771 41.245 63.0271 41.1815 63.3049 41.1815C63.5827 41.1815 63.8478 41.2541 64.1002 41.3976C64.3508 41.5428 64.5342 41.7298 64.6485 41.9641L64.5886 42.1275V38.5178H64.9391V44.1866H64.5814V43.2914L64.6558 43.4548C64.5323 43.6891 64.3453 43.8779 64.0966 44.025C63.8478 44.1721 63.5718 44.2447 63.2686 44.2447V44.2501ZM63.3575 43.9451C63.5809 43.9451 63.7824 43.8961 63.9622 43.7998C64.1419 43.7036 64.2854 43.571 64.3943 43.404C64.5033 43.2369 64.5668 43.0499 64.5814 42.8411V42.467C64.5469 42.2782 64.4688 42.1093 64.3508 41.9604C64.2309 41.8116 64.0875 41.6935 63.9186 41.6064C63.7497 41.5192 63.5627 41.4756 63.3594 41.4756C63.136 41.4756 62.9308 41.5283 62.7474 41.6318C62.564 41.7371 62.417 41.8806 62.308 42.0639C62.1991 42.2473 62.1446 42.4616 62.1446 42.7049C62.1446 42.9337 62.1991 43.1407 62.308 43.3277C62.417 43.5147 62.5659 43.6636 62.7511 43.7762C62.9381 43.8888 63.1396 43.9451 63.3594 43.9451H63.3575Z" fill="black"/>
<path d="M66.1936 40.201C66.1936 40.132 66.2208 40.0721 66.2753 40.0249C66.3298 39.9777 66.3897 39.9541 66.4551 39.9541C66.5241 39.9541 66.584 39.9777 66.6348 40.0249C66.6839 40.0721 66.7093 40.1302 66.7093 40.201C66.7093 40.2755 66.6839 40.3372 66.6348 40.3844C66.5858 40.4316 66.5259 40.4552 66.4551 40.4552C66.3915 40.4552 66.3316 40.4298 66.2753 40.3808C66.219 40.3318 66.1936 40.2718 66.1936 40.201ZM66.2681 41.276H66.6185V44.1921H66.2681V41.276Z" fill="black"/>
<path d="M68.2528 41.2741L68.2909 42.1911L68.2455 42.0113C68.3309 41.7571 68.4907 41.5574 68.7267 41.4103C68.9628 41.2632 69.2242 41.1906 69.5129 41.1906C69.7871 41.1906 70.0068 41.2723 70.1775 41.4339C70.3464 41.5955 70.4335 41.8061 70.439 42.064V44.1902H70.0813V42.162C70.0758 41.9732 70.0159 41.817 69.9015 41.6917C69.7871 41.5683 69.6201 41.5029 69.4022 41.4974C69.2079 41.4974 69.0263 41.5447 68.8575 41.6391C68.6886 41.7335 68.5524 41.866 68.4507 42.0349C68.349 42.2038 68.2982 42.3999 68.2982 42.625V44.192H67.9478V41.2759H68.2546L68.2528 41.2741Z" fill="black"/>
<path d="M73.0337 44.2502C72.7304 44.2502 72.4617 44.183 72.2275 44.0486C71.9932 43.9142 71.8117 43.7309 71.6791 43.5003C71.5466 43.2696 71.4812 43.01 71.4812 42.7213C71.4812 42.4326 71.5502 42.1784 71.69 41.946C71.8298 41.7117 72.0169 41.5265 72.2529 41.3867C72.489 41.2469 72.7504 41.1779 73.0391 41.1779C73.3878 41.1779 73.6801 41.2796 73.9161 41.4848C74.1522 41.6881 74.3229 41.955 74.4264 42.2837L71.8752 43.2678L71.7699 43.0136L74.105 42.1039L74.0305 42.2092C73.9452 42.0113 73.8181 41.8388 73.6456 41.6954C73.4749 41.5519 73.2643 41.4793 73.0155 41.4793C72.7922 41.4793 72.5906 41.5338 72.4109 41.6427C72.2311 41.7517 72.0895 41.8987 71.9823 42.0821C71.8752 42.2655 71.8226 42.4743 71.8226 42.7086C71.8226 42.9283 71.8734 43.1317 71.9751 43.3205C72.0768 43.5093 72.2202 43.6619 72.4036 43.7762C72.587 43.8906 72.7994 43.9487 73.0373 43.9487C73.1971 43.9487 73.3496 43.9197 73.4967 43.8598C73.6438 43.7999 73.7745 43.7236 73.8889 43.6292L74.0687 43.8834C73.9289 43.9923 73.7691 44.0813 73.5875 44.1521C73.4059 44.2211 73.2207 44.2574 73.0319 44.2574L73.0337 44.2502Z" fill="black"/>
<path d="M75.7048 41.2741L75.743 42.1693L75.6976 42.0567C75.7629 41.8769 75.8646 41.7244 76.0044 41.5937C76.1443 41.4648 76.2986 41.3649 76.4711 41.2959C76.6436 41.2269 76.8088 41.1906 76.9668 41.1906L76.9523 41.5338C76.7289 41.5338 76.5256 41.5828 76.344 41.6827C76.1624 41.7825 76.019 41.9151 75.9118 42.0821C75.8047 42.2492 75.7521 42.4362 75.7521 42.645V44.1902H75.4016V41.2741H75.7085H75.7048Z" fill="black"/>
<path d="M77.5459 42.714C77.5459 42.4308 77.6149 42.1729 77.7511 41.9387C77.8873 41.7045 78.0743 41.5193 78.3103 41.3831C78.5464 41.2469 78.8115 41.1779 79.1038 41.1779C79.3962 41.1779 79.6685 41.2469 79.9028 41.3831C80.137 41.5193 80.3204 41.7045 80.4548 41.9387C80.5891 42.1729 80.6563 42.4308 80.6563 42.714C80.6563 42.9973 80.5891 43.2569 80.4548 43.4894C80.3204 43.7236 80.1352 43.9088 79.8991 44.045C79.6631 44.183 79.398 44.2502 79.1038 44.2502C78.8097 44.2502 78.5391 44.1848 78.3067 44.0522C78.0725 43.9215 77.8873 43.7381 77.7511 43.5075C77.6149 43.2769 77.5459 43.0118 77.5459 42.7122V42.714ZM77.8963 42.7213C77.8963 42.9501 77.949 43.1571 78.0561 43.3441C78.1633 43.5311 78.3067 43.6782 78.4883 43.789C78.6699 43.8979 78.8732 43.9524 79.0966 43.9524C79.3199 43.9524 79.5233 43.8979 79.7048 43.789C79.8864 43.68 80.0299 43.5311 80.137 43.3441C80.2441 43.1571 80.2968 42.9501 80.2968 42.7213C80.2968 42.4925 80.2441 42.2855 80.137 42.0985C80.0299 41.9115 79.8864 41.7626 79.7048 41.6518C79.5233 41.5392 79.3217 41.4829 79.0966 41.4829C78.8714 41.4829 78.6626 41.541 78.481 41.6591C78.2994 41.7753 78.156 41.9296 78.0525 42.1185C77.949 42.3073 77.8963 42.5088 77.8963 42.7231V42.7213Z" fill="black"/>
<path d="M82.1054 43.542C81.9964 43.7999 81.8893 44.0577 81.784 44.3137C81.6787 44.5697 81.5733 44.8294 81.4626 45.0927H81.1648C81.2647 44.8294 81.3609 44.5697 81.4553 44.3137C81.5497 44.0577 81.6442 43.7999 81.7386 43.542H82.1035H82.1054Z" fill="black"/>
<path d="M86.6846 44.2501C86.4104 44.2501 86.1616 44.1848 85.9383 44.0522C85.715 43.9215 85.537 43.7381 85.4045 43.5038C85.2719 43.2696 85.2065 43.0063 85.2065 42.7122C85.2065 42.398 85.2737 42.1275 85.4081 41.8987C85.5425 41.6699 85.7259 41.4938 85.9565 41.3685C86.1871 41.245 86.4431 41.1815 86.7209 41.1815C86.9987 41.1815 87.2638 41.2541 87.5162 41.3976C87.7668 41.5428 87.9502 41.7298 88.0646 41.9641L88.0046 42.1275V38.5178H88.3551V44.1866H87.9974V43.2914L88.0718 43.4548C87.9483 43.6891 87.7613 43.8779 87.5126 44.025C87.2638 44.1721 86.9878 44.2447 86.6846 44.2447V44.2501ZM86.7735 43.9451C86.9969 43.9451 87.1984 43.8961 87.3782 43.7998C87.558 43.7036 87.7014 43.571 87.8103 43.404C87.9193 43.2369 87.9828 43.0499 87.9974 42.8411V42.467C87.9629 42.2782 87.8848 42.1093 87.7668 41.9604C87.6469 41.8116 87.5035 41.6935 87.3346 41.6064C87.1658 41.5192 86.9787 41.4756 86.7754 41.4756C86.552 41.4756 86.3468 41.5283 86.1634 41.6318C85.9801 41.7371 85.833 41.8806 85.724 42.0639C85.6151 42.2473 85.5606 42.4616 85.5606 42.7049C85.5606 42.9337 85.6151 43.1407 85.724 43.3277C85.833 43.5147 85.9819 43.6636 86.1671 43.7762C86.3541 43.8888 86.5557 43.9451 86.7754 43.9451H86.7735Z" fill="black"/>
<path d="M89.3992 42.714C89.3992 42.4308 89.4682 42.1729 89.6044 41.9387C89.7405 41.7045 89.9276 41.5193 90.1636 41.3831C90.3997 41.2469 90.6648 41.1779 90.9589 41.1779C91.2531 41.1779 91.5236 41.2469 91.756 41.3831C91.9903 41.5193 92.1737 41.7045 92.308 41.9387C92.4424 42.1729 92.5096 42.4308 92.5096 42.714C92.5096 42.9973 92.4424 43.2569 92.308 43.4894C92.1737 43.7236 91.9884 43.9088 91.7524 44.045C91.5164 44.183 91.2512 44.2502 90.9589 44.2502C90.6666 44.2502 90.3942 44.1848 90.16 44.0522C89.9257 43.9215 89.7405 43.7381 89.6044 43.5075C89.4682 43.2769 89.3992 43.0118 89.3992 42.7122V42.714ZM89.7496 42.7213C89.7496 42.9501 89.8023 43.1571 89.9094 43.3441C90.0165 43.5311 90.16 43.6782 90.3416 43.789C90.5231 43.8979 90.7265 43.9524 90.9498 43.9524C91.1732 43.9524 91.3765 43.8979 91.5581 43.789C91.7397 43.68 91.8831 43.5311 91.9903 43.3441C92.0974 43.1571 92.1501 42.9501 92.1501 42.7213C92.1501 42.4925 92.0974 42.2855 91.9903 42.0985C91.8831 41.9115 91.7397 41.7626 91.5581 41.6518C91.3765 41.5392 91.1732 41.4829 90.9498 41.4829C90.7265 41.4829 90.5159 41.541 90.3343 41.6591C90.1527 41.7753 90.0093 41.9296 89.9058 42.1185C89.8005 42.3073 89.7496 42.5088 89.7496 42.7231V42.7213ZM91.5617 39.6708L90.7719 40.6622H90.5177L91.1677 39.6708H91.5636H91.5617Z" fill="black"/>
<path d="M93.8605 41.2741L93.8986 42.1911L93.8532 42.0113C93.9367 41.7571 94.0983 41.5574 94.3344 41.4103C94.5704 41.2632 94.8337 41.1906 95.1206 41.1906C95.4075 41.1906 95.6145 41.2723 95.7852 41.4339C95.9559 41.5955 96.0412 41.8061 96.0467 42.064V44.1902H95.6889V42.162C95.6835 41.9732 95.6236 41.817 95.5092 41.6917C95.3948 41.5683 95.2277 41.5029 95.0098 41.4974C94.8156 41.4974 94.634 41.5447 94.4651 41.6391C94.2963 41.7335 94.1601 41.866 94.0584 42.0349C93.9567 42.2038 93.9059 42.3999 93.9059 42.625V44.192H93.5554V41.2759H93.8605V41.2741Z" fill="black"/>
<path d="M98.5669 44.2501C98.2927 44.2501 98.0458 44.1848 97.8206 44.0522C97.5973 43.9215 97.4193 43.7381 97.2868 43.5038C97.156 43.2696 97.0889 43.0063 97.0889 42.7122C97.0889 42.398 97.156 42.1275 97.2904 41.8987C97.4248 41.6699 97.6082 41.4938 97.8388 41.3685C98.0694 41.2432 98.3254 41.1815 98.6032 41.1815C98.881 41.1815 99.1461 41.2541 99.3967 41.3976C99.6473 41.5428 99.8307 41.7298 99.9451 41.9641L99.8851 42.1275V38.5178H100.236V44.1866H99.8779V43.2914L99.9523 43.4548C99.8288 43.6891 99.6418 43.8779 99.3931 44.025C99.1443 44.1721 98.8683 44.2447 98.5651 44.2447L98.5669 44.2501ZM98.6559 43.9451C98.8792 43.9451 99.0808 43.8961 99.2605 43.7998C99.4403 43.7036 99.5837 43.571 99.6927 43.404C99.8016 43.2369 99.8652 43.0499 99.8797 42.8411V42.467C99.8452 42.2782 99.7671 42.1093 99.6491 41.9604C99.5293 41.8116 99.3858 41.6935 99.2169 41.6064C99.0481 41.5192 98.8611 41.4756 98.6577 41.4756C98.4344 41.4756 98.2292 41.5283 98.0458 41.6318C97.8624 41.7371 97.7153 41.8806 97.6045 42.0639C97.4956 42.2473 97.4411 42.4616 97.4411 42.7049C97.4411 42.9337 97.4956 43.1407 97.6045 43.3277C97.7135 43.5147 97.8624 43.6636 98.0494 43.7762C98.2364 43.8888 98.438 43.9451 98.6577 43.9451H98.6559Z" fill="black"/>
<path d="M102.834 44.2502C102.531 44.2502 102.262 44.183 102.028 44.0486C101.794 43.9142 101.612 43.7309 101.479 43.5003C101.347 43.2696 101.281 43.01 101.281 42.7213C101.281 42.4326 101.35 42.1784 101.49 41.946C101.63 41.7117 101.817 41.5265 102.053 41.3867C102.289 41.2469 102.551 41.1779 102.839 41.1779C103.188 41.1779 103.48 41.2796 103.716 41.4848C103.952 41.6881 104.123 41.955 104.227 42.2837L101.676 43.2678L101.57 43.0136L103.905 42.1039L103.831 42.2092C103.745 42.0113 103.618 41.8388 103.446 41.6954C103.275 41.5519 103.065 41.4793 102.816 41.4793C102.592 41.4793 102.391 41.5338 102.211 41.6427C102.031 41.7517 101.89 41.8987 101.783 42.0821C101.676 42.2655 101.623 42.4743 101.623 42.7086C101.623 42.9283 101.674 43.1317 101.775 43.3205C101.877 43.5093 102.021 43.6619 102.204 43.7762C102.387 43.8906 102.6 43.9487 102.838 43.9487C102.997 43.9487 103.15 43.9197 103.297 43.8598C103.444 43.7999 103.575 43.7236 103.689 43.6292L103.869 43.8834C103.729 43.9923 103.569 44.0813 103.388 44.1521C103.206 44.2211 103.021 44.2574 102.832 44.2574L102.834 44.2502Z" fill="black"/>
<path d="M107.49 38.5214H107.84V44.1902H107.49V38.5214Z" fill="black"/>
<path d="M108.884 42.714C108.884 42.4308 108.953 42.1729 109.089 41.9387C109.225 41.7045 109.412 41.5193 109.648 41.3831C109.885 41.2469 110.15 41.1779 110.444 41.1779C110.738 41.1779 111.008 41.2469 111.241 41.3831C111.475 41.5193 111.659 41.7045 111.793 41.9387C111.927 42.1729 111.994 42.4308 111.994 42.714C111.994 42.9973 111.927 43.2569 111.793 43.4894C111.659 43.7236 111.473 43.9088 111.237 44.045C111.001 44.183 110.736 44.2502 110.444 44.2502C110.151 44.2502 109.879 44.1848 109.645 44.0522C109.411 43.9215 109.225 43.7381 109.089 43.5075C108.953 43.2769 108.884 43.0118 108.884 42.7122V42.714ZM109.234 42.7213C109.234 42.9501 109.287 43.1571 109.394 43.3441C109.501 43.5311 109.645 43.6782 109.826 43.789C110.008 43.8979 110.211 43.9524 110.435 43.9524C110.658 43.9524 110.861 43.8979 111.043 43.789C111.225 43.68 111.368 43.5311 111.475 43.3441C111.582 43.1571 111.635 42.9501 111.635 42.7213C111.635 42.4925 111.582 42.2855 111.475 42.0985C111.368 41.9115 111.225 41.7626 111.043 41.6518C110.861 41.5392 110.658 41.4829 110.435 41.4829C110.211 41.4829 110.001 41.541 109.819 41.6591C109.638 41.7753 109.494 41.9296 109.391 42.1185C109.285 42.3073 109.234 42.5088 109.234 42.7231V42.7213Z" fill="black"/>
<path d="M115.635 41.2741L115.673 42.1911L115.628 42.0113C115.711 41.7571 115.873 41.5574 116.109 41.4103C116.345 41.2632 116.608 41.1906 116.895 41.1906C117.182 41.1906 117.389 41.2723 117.56 41.4339C117.731 41.5955 117.816 41.8061 117.821 42.064V44.1902H117.464V42.162C117.458 41.9732 117.398 41.817 117.284 41.6917C117.169 41.5683 117.002 41.5029 116.785 41.4974C116.59 41.4974 116.409 41.5447 116.24 41.6391C116.071 41.7335 115.935 41.866 115.833 42.0349C115.731 42.2038 115.681 42.3999 115.681 42.625V44.192H115.33V41.2759H115.635V41.2741Z" fill="black"/>
<path d="M120.416 44.2502C120.113 44.2502 119.844 44.183 119.61 44.0486C119.376 43.9142 119.194 43.7309 119.061 43.5003C118.931 43.2696 118.864 43.01 118.864 42.7213C118.864 42.4326 118.933 42.1784 119.072 41.946C119.212 41.7117 119.399 41.5265 119.635 41.3867C119.871 41.2469 120.135 41.1779 120.421 41.1779C120.77 41.1779 121.062 41.2796 121.298 41.4848C121.535 41.6881 121.705 41.955 121.811 42.2837L119.259 43.2678L119.154 43.0136L121.489 42.1039L121.415 42.2092C121.329 42.0113 121.202 41.8388 121.03 41.6954C120.857 41.5519 120.648 41.4793 120.4 41.4793C120.176 41.4793 119.975 41.5338 119.795 41.6427C119.615 41.7517 119.474 41.8987 119.366 42.0821C119.259 42.2655 119.207 42.4743 119.207 42.7086C119.207 42.9283 119.258 43.1317 119.359 43.3205C119.461 43.5093 119.604 43.6619 119.788 43.7762C119.971 43.8906 120.184 43.9487 120.421 43.9487C120.581 43.9487 120.734 43.9197 120.881 43.8598C121.028 43.7999 121.159 43.7236 121.273 43.6292L121.453 43.8834C121.313 43.9923 121.153 44.0813 120.972 44.1521C120.79 44.2211 120.605 44.2574 120.416 44.2574V44.2502Z" fill="black"/>
<path d="M125.033 43.9088C124.899 44.0178 124.747 44.1031 124.578 44.163C124.409 44.2229 124.233 44.252 124.047 44.252C123.75 44.252 123.483 44.1866 123.25 44.0541C123.016 43.9233 122.833 43.7418 122.698 43.513C122.564 43.2842 122.497 43.0227 122.497 42.7304C122.497 42.438 122.566 42.1766 122.706 41.9478C122.845 41.719 123.031 41.5392 123.261 41.4067C123.492 41.276 123.744 41.2088 124.018 41.2088C124.222 41.2088 124.411 41.2378 124.585 41.2977C124.759 41.3577 124.91 41.443 125.041 41.552L124.854 41.7898C124.748 41.7063 124.627 41.6355 124.489 41.581C124.349 41.5265 124.2 41.4993 124.042 41.4993C123.822 41.4993 123.623 41.5538 123.441 41.6627C123.259 41.7717 123.116 41.9205 123.009 42.1076C122.902 42.2946 122.849 42.5016 122.849 42.7304C122.849 42.9592 122.902 43.1589 123.009 43.3459C123.116 43.533 123.263 43.68 123.448 43.7908C123.633 43.9016 123.842 43.9542 124.071 43.9542C124.22 43.9542 124.36 43.9306 124.489 43.8834C124.618 43.8362 124.736 43.7726 124.839 43.6927L125.033 43.9088Z" fill="black"/>
<path d="M127.28 44.2502C126.976 44.2502 126.708 44.183 126.473 44.0486C126.239 43.9142 126.058 43.7309 125.925 43.5003C125.792 43.2696 125.727 43.01 125.727 42.7213C125.727 42.4326 125.796 42.1784 125.936 41.946C126.076 41.7117 126.263 41.5265 126.499 41.3867C126.735 41.2469 126.996 41.1779 127.285 41.1779C127.634 41.1779 127.926 41.2796 128.162 41.4848C128.398 41.6881 128.569 41.955 128.672 42.2837L126.121 43.2678L126.016 43.0136L128.351 42.1039L128.276 42.2092C128.191 42.0113 128.064 41.8388 127.891 41.6954C127.721 41.5519 127.51 41.4793 127.261 41.4793C127.038 41.4793 126.836 41.5338 126.657 41.6427C126.477 41.7517 126.335 41.8987 126.228 42.0821C126.121 42.2655 126.068 42.4743 126.068 42.7086C126.068 42.9283 126.119 43.1317 126.221 43.3205C126.323 43.5093 126.466 43.6619 126.649 43.7762C126.833 43.8906 127.045 43.9487 127.283 43.9487C127.443 43.9487 127.595 43.9197 127.743 43.8598C127.89 43.7999 128.02 43.7236 128.135 43.6292L128.315 43.8834C128.175 43.9923 128.015 44.0813 127.833 44.1521C127.652 44.2211 127.467 44.2574 127.278 44.2574L127.28 44.2502Z" fill="black"/>
<path d="M130.33 44.2502C130.161 44.2502 129.985 44.2193 129.8 44.1576C129.617 44.0958 129.468 43.9941 129.353 43.8561L129.517 43.6255C129.617 43.7309 129.735 43.8126 129.871 43.8761C130.007 43.9378 130.152 43.9687 130.307 43.9687C130.421 43.9687 130.53 43.9524 130.632 43.9197C130.733 43.887 130.817 43.8307 130.882 43.7526C130.946 43.6727 130.978 43.5656 130.978 43.4313C130.978 43.2969 130.94 43.1843 130.862 43.1099C130.784 43.0354 130.688 42.9737 130.572 42.9265C130.455 42.8793 130.332 42.8357 130.203 42.7957C129.989 42.7267 129.814 42.6323 129.676 42.5125C129.538 42.3926 129.471 42.2238 129.471 42.0059C129.471 41.8461 129.509 41.7081 129.588 41.5882C129.664 41.4684 129.771 41.3758 129.905 41.3086C130.04 41.2414 130.19 41.2069 130.361 41.2069C130.515 41.2069 130.668 41.2324 130.82 41.2814C130.973 41.3304 131.111 41.4158 131.234 41.5356L131.078 41.7825C130.998 41.6736 130.893 41.5991 130.76 41.5592C130.628 41.5193 130.514 41.4975 130.414 41.492C130.328 41.492 130.241 41.5102 130.149 41.5447C130.056 41.5792 129.98 41.63 129.918 41.6972C129.856 41.7644 129.825 41.8534 129.825 41.9623C129.825 42.0712 129.858 42.1693 129.922 42.2419C129.985 42.3146 130.069 42.3727 130.172 42.4181C130.274 42.4634 130.379 42.5052 130.49 42.5452C130.635 42.5906 130.77 42.6432 130.897 42.7049C131.024 42.7667 131.127 42.8484 131.211 42.9519C131.293 43.0536 131.334 43.1898 131.334 43.3586C131.334 43.5275 131.296 43.68 131.222 43.818C131.147 43.9542 131.036 44.0613 130.889 44.1394C130.742 44.2157 130.557 44.2556 130.334 44.2556L130.33 44.2502Z" fill="black"/>
<path d="M132.315 40.201C132.315 40.132 132.342 40.0721 132.396 40.0249C132.451 39.9777 132.511 39.9541 132.576 39.9541C132.645 39.9541 132.705 39.9777 132.756 40.0249C132.805 40.0721 132.83 40.1302 132.83 40.201C132.83 40.2755 132.805 40.3372 132.756 40.3844C132.707 40.4316 132.647 40.4552 132.576 40.4552C132.511 40.4552 132.453 40.4298 132.396 40.3808C132.342 40.3318 132.315 40.2718 132.315 40.201ZM132.389 41.276H132.74V44.1921H132.389V41.276Z" fill="black"/>
<path d="M134.357 39.9922H134.715V41.3122H135.618V41.5955H134.715V44.1921H134.357V41.5955H133.738V41.3122H134.357V39.9922Z" fill="black"/>
<path d="M137.76 44.2502C137.457 44.2502 137.188 44.183 136.954 44.0486C136.72 43.9142 136.538 43.7309 136.406 43.5003C136.273 43.2696 136.208 43.01 136.208 42.7213C136.208 42.4326 136.277 42.1784 136.417 41.946C136.556 41.7117 136.743 41.5265 136.979 41.3867C137.216 41.2469 137.477 41.1779 137.766 41.1779C138.114 41.1779 138.407 41.2796 138.643 41.4848C138.879 41.6881 139.049 41.955 139.153 42.2837L136.602 43.2678L136.496 43.0136L138.832 42.1039L138.757 42.2092C138.672 42.0113 138.545 41.8388 138.372 41.6954C138.201 41.5519 137.991 41.4793 137.742 41.4793C137.519 41.4793 137.317 41.5338 137.137 41.6427C136.958 41.7517 136.816 41.8987 136.709 42.0821C136.602 42.2655 136.549 42.4743 136.549 42.7086C136.549 42.9283 136.6 43.1317 136.702 43.3205C136.803 43.5093 136.947 43.6619 137.13 43.7762C137.314 43.8906 137.526 43.9487 137.764 43.9487C137.924 43.9487 138.076 43.9197 138.223 43.8598C138.37 43.7999 138.501 43.7236 138.615 43.6292L138.795 43.8834C138.655 43.9923 138.496 44.0813 138.314 44.1521C138.132 44.2211 137.947 44.2574 137.758 44.2574L137.76 44.2502Z" fill="black"/>
<path d="M140.811 44.2502C140.642 44.2502 140.466 44.2193 140.28 44.1576C140.097 44.0958 139.948 43.9941 139.834 43.8561L139.997 43.6255C140.097 43.7309 140.215 43.8126 140.351 43.8761C140.487 43.9378 140.633 43.9687 140.787 43.9687C140.901 43.9687 141.01 43.9524 141.112 43.9197C141.214 43.887 141.297 43.8307 141.363 43.7526C141.426 43.6727 141.459 43.5656 141.459 43.4313C141.459 43.2969 141.421 43.1843 141.343 43.1099C141.265 43.0354 141.168 42.9737 141.052 42.9265C140.936 42.8793 140.812 42.8357 140.684 42.7957C140.469 42.7267 140.295 42.6323 140.157 42.5125C140.019 42.3926 139.952 42.2238 139.952 42.0059C139.952 41.8461 139.99 41.7081 140.068 41.5882C140.144 41.4684 140.251 41.3758 140.386 41.3086C140.52 41.2414 140.671 41.2069 140.841 41.2069C140.996 41.2069 141.148 41.2324 141.301 41.2814C141.453 41.3304 141.591 41.4158 141.715 41.5356L141.559 41.7825C141.479 41.6736 141.374 41.5991 141.241 41.5592C141.108 41.5193 140.994 41.4975 140.894 41.492C140.809 41.492 140.722 41.5102 140.629 41.5447C140.536 41.5792 140.46 41.63 140.398 41.6972C140.337 41.7644 140.306 41.8534 140.306 41.9623C140.306 42.0712 140.339 42.1693 140.402 42.2419C140.466 42.3146 140.549 42.3727 140.653 42.4181C140.754 42.4634 140.86 42.5052 140.97 42.5452C141.116 42.5906 141.25 42.6432 141.377 42.7049C141.504 42.7667 141.608 42.8484 141.691 42.9519C141.773 43.0536 141.815 43.1898 141.815 43.3586C141.815 43.5275 141.777 43.68 141.702 43.818C141.628 43.9542 141.517 44.0613 141.37 44.1394C141.223 44.2157 141.038 44.2556 140.814 44.2556L140.811 44.2502Z" fill="black"/>
<defs>
<linearGradient id="paint0_linear_2_1159" x1="25.3443" y1="66.5496" x2="25.1972" y2="16.7722" gradientUnits="userSpaceOnUse">
<stop stop-color="#006EFF"/>
<stop offset="0.62" stop-color="#009CFF"/>
<stop offset="1" stop-color="#00B4FF"/>
</linearGradient>
<linearGradient id="paint1_linear_2_1159" x1="30.9786" y1="25.0739" x2="9.90849" y2="15.7572" gradientUnits="userSpaceOnUse">
<stop stop-color="#332596"/>
<stop offset="0.49" stop-color="#9C95CC"/>
<stop offset="0.84" stop-color="#E3E1F0"/>
<stop offset="1" stop-color="white"/>
</linearGradient>
<linearGradient id="paint2_linear_2_1159" x1="-8.34344" y1="30.3305" x2="30.3814" y2="25.4044" gradientUnits="userSpaceOnUse">
<stop stop-color="#332596"/>
<stop offset="0.49" stop-color="#9C95CC"/>
<stop offset="0.84" stop-color="#E3E1F0"/>
<stop offset="1" stop-color="white"/>
</linearGradient>
<linearGradient id="paint3_linear_2_1159" x1="25.0139" y1="28.5547" x2="21.5149" y2="6.4859" gradientUnits="userSpaceOnUse">
<stop stop-color="#FFB700"/>
<stop offset="0.16" stop-color="#FF9F0E"/>
<stop offset="0.49" stop-color="#FF6333"/>
<stop offset="0.96" stop-color="#FF036E"/>
<stop offset="0.98" stop-color="#FF0071"/>
</linearGradient>
<linearGradient id="paint4_linear_2_1159" x1="27.5051" y1="13.2605" x2="12.3072" y2="6.54038" gradientUnits="userSpaceOnUse">
<stop stop-color="#A81495"/>
<stop offset="0.04" stop-color="#AB1E99"/>
<stop offset="0.52" stop-color="#D895CF"/>
<stop offset="0.85" stop-color="#F4E1F1"/>
<stop offset="1" stop-color="white"/>
</linearGradient>
<linearGradient id="paint5_linear_2_1159" x1="-0.858939" y1="17.0518" x2="27.0748" y2="13.4984" gradientUnits="userSpaceOnUse">
<stop stop-color="#A81495"/>
<stop offset="0.04" stop-color="#AB1E99"/>
<stop offset="0.52" stop-color="#D895CF"/>
<stop offset="0.85" stop-color="#F4E1F1"/>
<stop offset="1" stop-color="white"/>
</linearGradient>
</defs>
</svg>
