<svg width="813" height="1243" viewBox="0 0 813 1243" fill="none" xmlns="http://www.w3.org/2000/svg">
<path d="M73.6479 1209.82L716.956 796.757C844.555 714.804 844.555 528.357 716.956 446.404L73.6479 33.3369C-64.8997 -55.6202 -247 43.8829 -247 208.514C-247 254.723 -228.645 299.081 -195.96 331.766L93.774 621.5L-195.96 911.234C-228.645 943.919 -247 988.277 -247 1034.49C-247 1199.12 -64.8997 1298.62 73.6479 1209.66V1209.82Z" fill="url(#paint0_linear_11_88)"/>
<path style="mix-blend-mode:multiply" d="M73.6479 33.4189C-64.8997 -55.5382 -247 43.9649 -247 208.596C-247 254.805 -228.645 299.163 -195.96 331.848L93.774 621.582C93.774 621.582 395.745 347.224 73.5674 33.3384L73.6479 33.4189Z" fill="url(#paint1_linear_11_88)"/>
<path style="mix-blend-mode:multiply" d="M717.042 796.757C844.641 714.804 844.641 528.357 717.042 446.403L73.7339 33.3369C-64.8137 -55.6202 -246.914 43.8829 -246.914 208.514C-246.914 231.618 -242.325 254.24 -233.631 275.252C-231.457 280.484 -229.042 285.637 -226.385 290.628C-222.36 298.115 -217.772 305.36 -212.7 312.284C-207.628 319.207 -201.993 325.728 -195.874 331.846L93.8599 621.58L95.2285 623.11C99.6562 627.377 115.193 642.592 133.951 666.985C203.587 757.23 317.5 971.934 74.3779 1209.42L717.042 796.838V796.757Z" fill="url(#paint2_linear_11_88)"/>
<defs>
<linearGradient id="paint0_linear_11_88" x1="287.386" y1="2365.38" x2="280.866" y2="158.44" gradientUnits="userSpaceOnUse">
<stop stop-color="#006EFF"/>
<stop offset="0.62" stop-color="#009CFF"/>
<stop offset="1" stop-color="#00B4FF"/>
</linearGradient>
<linearGradient id="paint1_linear_11_88" x1="537.191" y1="526.507" x2="-396.979" y2="113.44" gradientUnits="userSpaceOnUse">
<stop stop-color="#332596"/>
<stop offset="0.49" stop-color="#9C95CC"/>
<stop offset="0.84" stop-color="#E3E1F0"/>
<stop offset="1" stop-color="white"/>
</linearGradient>
<linearGradient id="paint2_linear_11_88" x1="-1206.2" y1="759.564" x2="510.71" y2="541.157" gradientUnits="userSpaceOnUse">
<stop stop-color="#332596"/>
<stop offset="0.49" stop-color="#9C95CC"/>
<stop offset="0.84" stop-color="#E3E1F0"/>
<stop offset="1" stop-color="white"/>
</linearGradient>
</defs>
</svg>
