<svg width="40" height="47" viewBox="0 0 40 47" fill="none" xmlns="http://www.w3.org/2000/svg">
<path d="M12.1029 45.668L36.3887 30.0771C41.2038 26.985 41.2038 19.9457 36.3887 16.8536L12.1029 1.25848C6.87501 -2.09898 0 1.65447 0 7.87232C0 9.61635 0.695085 11.293 1.92939 12.5273L12.8654 23.4633L1.92939 34.3993C0.695085 35.6336 0 37.306 0 39.0542C0 45.2678 6.87501 49.0255 12.1029 45.668Z" fill="url(#paint0_linear_128_3)"/>
<path style="mix-blend-mode:multiply" d="M12.1029 1.25848C6.87501 -2.09898 0 1.65447 0 7.87232C0 9.61635 0.695085 11.293 1.92939 12.5273L12.8654 23.4633C12.8654 23.4633 24.2648 13.1044 12.1029 1.25848Z" fill="url(#paint1_linear_128_3)"/>
<path style="mix-blend-mode:multiply" d="M36.3845 30.0771C41.1995 26.985 41.1995 19.9457 36.3845 16.8536L12.1029 1.25848C6.87501 -2.09898 0 1.65447 0 7.87232C0 8.74433 0.172719 9.5995 0.501304 10.3915C0.581344 10.5895 0.67402 10.7832 0.775123 10.9728C0.926778 11.2551 1.0995 11.5289 1.29328 11.7901C1.48706 12.0512 1.69769 12.2956 1.92939 12.5273L12.8654 23.4633L12.9159 23.5222C13.0844 23.6823 13.67 24.2595 14.3777 25.1778C17.0064 28.5858 21.3033 36.6909 12.1282 45.6512L36.3845 30.0771V30.0771Z" fill="url(#paint2_linear_128_3)"/>
<defs>
<linearGradient id="paint0_linear_128_3" x1="23.8182" y1="55.3571" x2="15.7005" y2="4.15677" gradientUnits="userSpaceOnUse">
<stop stop-color="#FFB700"/>
<stop offset="0.16" stop-color="#FF9F0E"/>
<stop offset="0.49" stop-color="#FF6333"/>
<stop offset="0.96" stop-color="#FF036E"/>
<stop offset="0.98" stop-color="#FF0071"/>
</linearGradient>
<linearGradient id="paint1_linear_128_3" x1="29.598" y1="19.8741" x2="-5.66178" y2="4.28315" gradientUnits="userSpaceOnUse">
<stop stop-color="#A81495"/>
<stop offset="0.04" stop-color="#AB1E99"/>
<stop offset="0.52" stop-color="#D895CF"/>
<stop offset="0.85" stop-color="#F4E1F1"/>
<stop offset="1" stop-color="white"/>
</linearGradient>
<linearGradient id="paint2_linear_128_3" x1="-36.2076" y1="28.6701" x2="28.5996" y2="20.426" gradientUnits="userSpaceOnUse">
<stop stop-color="#A81495"/>
<stop offset="0.04" stop-color="#AB1E99"/>
<stop offset="0.52" stop-color="#D895CF"/>
<stop offset="0.85" stop-color="#F4E1F1"/>
<stop offset="1" stop-color="white"/>
</linearGradient>
</defs>
</svg>
