<svg width="14" height="14" viewBox="0 0 14 14" fill="none" xmlns="http://www.w3.org/2000/svg">
<path fill-rule="evenodd" clip-rule="evenodd" d="M6.18767 9.89042C5.97204 9.71791 5.93708 9.40327 6.10958 9.18763L7.85971 6.99998L6.10958 4.81233C5.93708 4.5967 5.97204 4.28205 6.18767 4.10955C6.4033 3.93704 6.71795 3.972 6.89045 4.18763L8.89045 6.68763C9.03654 6.87024 9.03654 7.12972 8.89045 7.31233L6.89045 9.81233C6.71795 10.028 6.4033 10.0629 6.18767 9.89042Z" fill="white"/>
<path fill-rule="evenodd" clip-rule="evenodd" d="M7 1C3.68629 1 1 3.68629 1 7C1 10.3137 3.68629 13 7 13C10.3137 13 13 10.3137 13 7C13 3.68629 10.3137 1 7 1ZM0 7C0 3.13401 3.13401 0 7 0C10.866 0 14 3.13401 14 7C14 10.866 10.866 14 7 14C3.13401 14 0 10.866 0 7Z" fill="white"/>
</svg>
