<svg width="14" height="14" viewBox="0 0 14 14" fill="none" xmlns="http://www.w3.org/2000/svg">
<path fill-rule="evenodd" clip-rule="evenodd" d="M7.81233 4.10958C8.02796 4.28209 8.06292 4.59674 7.89042 4.81237L6.14029 7.00002L7.89042 9.18767C8.06292 9.4033 8.02796 9.71795 7.81233 9.89045C7.5967 10.063 7.28205 10.028 7.10955 9.81237L5.10955 7.31237C4.96346 7.12976 4.96346 6.87028 5.10955 6.68767L7.10955 4.18767C7.28205 3.97204 7.5967 3.93708 7.81233 4.10958Z" fill="#133981"/>
<path fill-rule="evenodd" clip-rule="evenodd" d="M7 13C10.3137 13 13 10.3137 13 7C13 3.68629 10.3137 1 7 0.999999C3.68629 0.999999 1 3.68629 1 7C1 10.3137 3.68629 13 7 13ZM14 7C14 10.866 10.866 14 7 14C3.13401 14 2.73984e-07 10.866 6.11959e-07 7C9.49935e-07 3.13401 3.13401 -9.49935e-07 7 -6.11959e-07C10.866 -2.73984e-07 14 3.13401 14 7Z" fill="#133981"/>
</svg>
