<svg width="21" height="20" viewBox="0 0 21 20" fill="none" xmlns="http://www.w3.org/2000/svg">
<g clip-path="url(#clip0_2_966)">
<path fill-rule="evenodd" clip-rule="evenodd" d="M14.5138 1.79548C15.1299 1.80297 15.7401 1.91538 16.3179 2.12783C16.7369 2.28841 17.1175 2.5344 17.435 2.84997C17.7526 3.16554 18.0002 3.54369 18.1618 3.96008C18.3755 4.53427 18.4887 5.14063 18.4962 5.75281C18.5425 6.77098 18.5526 7.07621 18.5526 9.65359C18.5526 12.231 18.5429 12.5362 18.4962 13.5544C18.4887 14.1666 18.3755 14.7729 18.1618 15.3471C18.0002 15.7635 17.7526 16.1416 17.435 16.4572C17.1175 16.7728 16.7369 17.0188 16.3179 17.1794C15.7401 17.3918 15.1299 17.5042 14.5138 17.5117C13.4896 17.5577 13.1825 17.5678 10.5883 17.5678C7.99414 17.5678 7.68698 17.5581 6.66282 17.5117C6.04676 17.5042 5.43656 17.3918 4.85873 17.1794C4.4397 17.0188 4.05916 16.7728 3.74159 16.4572C3.42402 16.1416 3.17647 15.7635 3.01487 15.3471C2.80108 14.7729 2.68796 14.1666 2.68042 13.5544C2.63416 12.5362 2.62398 12.231 2.62398 9.65359C2.62398 7.07621 2.6337 6.77098 2.68042 5.75281C2.68796 5.14063 2.80108 4.53427 3.01487 3.96008C3.17647 3.54369 3.42402 3.16554 3.74159 2.84997C4.05916 2.5344 4.4397 2.28841 4.85873 2.12783C5.43656 1.91538 6.04676 1.80297 6.66282 1.79548C7.68744 1.74952 7.9946 1.7394 10.5883 1.7394C13.182 1.7394 13.4892 1.74906 14.5138 1.79548ZM6.58325 0.0579188C5.77699 0.0738547 4.97928 0.225553 4.22407 0.50656C3.57621 0.749114 2.98942 1.12922 2.50464 1.62035C2.00995 2.10226 1.62711 2.68568 1.38287 3.32987C1.10008 4.08033 0.947421 4.87302 0.931384 5.6742C0.885126 6.70295 0.874023 7.033 0.874023 9.65313C0.874023 12.2733 0.885125 12.6033 0.932309 13.633C0.948346 14.4342 1.10101 15.2269 1.38379 15.9773C1.62776 16.6214 2.01028 17.2048 2.50464 17.6868C2.98969 18.1781 3.57681 18.5582 4.22499 18.8006C4.98021 19.0816 5.77791 19.2333 6.58418 19.2493C7.62037 19.2952 7.95112 19.3072 10.5892 19.3072C13.2274 19.3072 13.5581 19.2962 14.5943 19.2493C15.4006 19.2333 16.1983 19.0816 16.9535 18.8006C17.5986 18.5521 18.1844 18.1726 18.6735 17.6863C19.1626 17.2 19.5441 16.6176 19.7938 15.9764C20.0765 15.2259 20.2292 14.4333 20.2452 13.6321C20.2915 12.6033 20.3026 12.2733 20.3026 9.65313C20.3026 7.033 20.2915 6.70295 20.2443 5.67329C20.2283 4.8721 20.0756 4.07941 19.7928 3.32895C19.5489 2.68485 19.1663 2.10143 18.672 1.61943C18.1869 1.12819 17.5998 0.748076 16.9516 0.50564C16.1964 0.224633 15.3987 0.0729354 14.5925 0.0569995C13.5572 0.0110322 13.225 0 10.5883 0C7.95158 0 7.61944 0.0110321 6.58325 0.0579188Z" fill="#06275F"/>
<path fill-rule="evenodd" clip-rule="evenodd" d="M7.8147 5.53171C6.99435 6.07641 6.35496 6.8506 5.97739 7.7564C5.59982 8.66219 5.50103 9.6589 5.69351 10.6205C5.88599 11.5821 6.36111 12.4653 7.05876 13.1586C7.75642 13.8519 8.64529 14.324 9.61297 14.5153C10.5806 14.7065 11.5837 14.6084 12.4952 14.2332C13.4067 13.858 14.1858 13.2226 14.734 12.4074C15.2821 11.5922 15.5747 10.6338 15.5747 9.6534C15.5747 8.3387 15.0491 7.07783 14.1136 6.14819C13.1781 5.21856 11.9092 4.69629 10.5862 4.69629C9.59954 4.69629 8.63506 4.98702 7.8147 5.53171ZM8.78719 12.3288C8.25469 11.9753 7.83965 11.4727 7.59457 10.8848C7.34948 10.2968 7.28536 9.64983 7.4103 9.02566C7.53524 8.40148 7.84364 7.82814 8.2965 7.37814C8.74935 6.92813 9.32633 6.62168 9.95446 6.49752C10.5826 6.37336 11.2337 6.43708 11.8253 6.68063C12.417 6.92417 12.9227 7.33659 13.2786 7.86574C13.6344 8.39489 13.8243 9.017 13.8243 9.6534C13.8243 10.5068 13.4831 11.3252 12.8759 11.9287C12.2686 12.5321 11.445 12.8711 10.5862 12.8711C9.94574 12.8711 9.31969 12.6824 8.78719 12.3288Z" fill="#06275F"/>
<path fill-rule="evenodd" clip-rule="evenodd" d="M15.7731 5.65855C15.1293 5.65855 14.6074 5.13993 14.6074 4.50017C14.6074 3.86042 15.1293 3.3418 15.7731 3.3418C16.4169 3.3418 16.9389 3.86042 16.9389 4.50017C16.9389 5.13993 16.4169 5.65855 15.7731 5.65855Z" fill="#06275F"/>
</g>
<defs>
<clipPath id="clip0_2_966">
<rect width="19.4286" height="19.3072" fill="white" transform="translate(0.874023)"/>
</clipPath>
</defs>
</svg>
