<svg width="49" height="49" viewBox="0 0 49 49" fill="none" xmlns="http://www.w3.org/2000/svg">
<g filter="url(#filter0_d_81_3)">
<circle cx="24.4915" cy="21.7754" r="14.8509" fill="white"/>
</g>
<path d="M28.2041 18.4002H28.8791M20.4411 15.025H28.5416C30.0328 15.025 31.2418 16.2339 31.2418 17.7252V25.8257C31.2418 27.3169 30.0328 28.5258 28.5416 28.5258H20.4411C18.9499 28.5258 17.741 27.3169 17.741 25.8257V17.7252C17.741 16.2339 18.9499 15.025 20.4411 15.025ZM24.4914 24.4756C23.0001 24.4756 21.7912 23.2667 21.7912 21.7754C21.7912 20.2842 23.0001 19.0753 24.4914 19.0753C25.9826 19.0753 27.1915 20.2842 27.1915 21.7754C27.1915 23.2667 25.9826 24.4756 24.4914 24.4756Z" stroke="url(#paint0_linear_81_3)" stroke-width="0.675039"/>
<defs>
<filter id="filter0_d_81_3" x="0.190077" y="0.174169" width="48.6028" height="48.6029" filterUnits="userSpaceOnUse" color-interpolation-filters="sRGB">
<feFlood flood-opacity="0" result="BackgroundImageFix"/>
<feColorMatrix in="SourceAlpha" type="matrix" values="0 0 0 0 0 0 0 0 0 0 0 0 0 0 0 0 0 0 127 0" result="hardAlpha"/>
<feMorphology radius="2.70016" operator="dilate" in="SourceAlpha" result="effect1_dropShadow_81_3"/>
<feOffset dy="2.70016"/>
<feGaussianBlur stdDeviation="3.3752"/>
<feComposite in2="hardAlpha" operator="out"/>
<feColorMatrix type="matrix" values="0 0 0 0 0.629167 0 0 0 0 0.610816 0 0 0 0 0.610816 0 0 0 0.1 0"/>
<feBlend mode="normal" in2="BackgroundImageFix" result="effect1_dropShadow_81_3"/>
<feBlend mode="normal" in="SourceGraphic" in2="effect1_dropShadow_81_3" result="shape"/>
</filter>
<linearGradient id="paint0_linear_81_3" x1="17.741" y1="15.025" x2="31.2418" y2="28.5258" gradientUnits="userSpaceOnUse">
<stop offset="0.00245237" stop-color="#F8B107"/>
<stop offset="1" stop-color="#FC0670"/>
</linearGradient>
</defs>
</svg>
