<svg width="50" height="49" viewBox="0 0 50 49" fill="none" xmlns="http://www.w3.org/2000/svg">
<g filter="url(#filter0_d_81_4)">
<circle cx="24.8509" cy="21.8509" r="14.8509" fill="white"/>
</g>
<path d="M21.4758 20.1633V25.5636M28.2262 25.5636V22.8634C28.2262 21.5586 27.1684 20.5008 25.8635 20.5008C24.5587 20.5008 23.5009 21.5586 23.5009 22.8634V25.5636V20.1633M21.1383 18.4757H21.8133M18.7756 15.1005H30.9263C31.2991 15.1005 31.6014 15.4027 31.6014 15.7755V27.9262C31.6014 28.299 31.2991 28.6012 30.9263 28.6012H18.7756C18.4028 28.6012 18.1006 28.299 18.1006 27.9262V15.7755C18.1006 15.4027 18.4028 15.1005 18.7756 15.1005Z" stroke="url(#paint0_linear_81_4)" stroke-width="0.675039"/>
<defs>
<filter id="filter0_d_81_4" x="0.549452" y="0.249609" width="48.6028" height="48.6029" filterUnits="userSpaceOnUse" color-interpolation-filters="sRGB">
<feFlood flood-opacity="0" result="BackgroundImageFix"/>
<feColorMatrix in="SourceAlpha" type="matrix" values="0 0 0 0 0 0 0 0 0 0 0 0 0 0 0 0 0 0 127 0" result="hardAlpha"/>
<feMorphology radius="2.70016" operator="dilate" in="SourceAlpha" result="effect1_dropShadow_81_4"/>
<feOffset dy="2.70016"/>
<feGaussianBlur stdDeviation="3.3752"/>
<feComposite in2="hardAlpha" operator="out"/>
<feColorMatrix type="matrix" values="0 0 0 0 0.629167 0 0 0 0 0.610816 0 0 0 0 0.610816 0 0 0 0.1 0"/>
<feBlend mode="normal" in2="BackgroundImageFix" result="effect1_dropShadow_81_4"/>
<feBlend mode="normal" in="SourceGraphic" in2="effect1_dropShadow_81_4" result="shape"/>
</filter>
<linearGradient id="paint0_linear_81_4" x1="18.1006" y1="15.1005" x2="31.6014" y2="28.6012" gradientUnits="userSpaceOnUse">
<stop stop-color="#F9B007"/>
<stop offset="1" stop-color="#FC0571"/>
</linearGradient>
</defs>
</svg>
