<svg width="17" height="18" viewBox="0 0 17 18" fill="none" xmlns="http://www.w3.org/2000/svg">
<path d="M3.65394 1.75429C3.65774 2.23305 3.46897 2.69406 3.12843 3.0377C2.78789 3.38134 2.32291 3.58002 1.83397 3.59081C1.34604 3.57328 0.883637 3.37292 0.542318 3.03112C0.200998 2.68933 0.00685192 2.23223 0 1.75429C0.0212104 1.28863 0.222495 0.848288 0.563049 0.52253C0.903603 0.196772 1.35794 0.00997282 1.83397 0C2.3086 0.010159 2.76134 0.197422 3.09963 0.523502C3.43792 0.849582 3.6362 1.28985 3.65394 1.75429ZM0.195997 6.85268C0.195997 5.79737 0.881985 5.96184 1.83397 5.96184C2.78595 5.96184 3.45794 5.79737 3.45794 6.85268V17.1317C3.45794 18.2007 2.77195 17.9814 1.83397 17.9814C0.895985 17.9814 0.195997 18.2007 0.195997 17.1317V6.85268Z" fill="#06275F"/>
<path d="M6.28613 6.85268C6.28613 6.26335 6.51013 6.04407 6.86012 5.97554C7.21012 5.90701 8.4141 5.97554 8.83409 5.97554C9.25408 5.97554 9.42208 6.6471 9.40808 7.1542C9.76734 6.68218 10.2443 6.3083 10.7934 6.06834C11.3424 5.82838 11.9452 5.73036 12.544 5.78366C13.1321 5.74847 13.7211 5.83478 14.2728 6.03698C14.8245 6.23918 15.3266 6.55275 15.7465 6.95732C16.1663 7.36189 16.4946 7.8484 16.7098 8.38526C16.9251 8.92211 17.0226 9.4973 16.9959 10.0734V17.0906C16.9959 18.1596 16.324 17.9403 15.372 17.9403C14.42 17.9403 13.748 18.1596 13.748 17.0906V11.6084C13.7726 11.3263 13.7349 11.0423 13.6375 10.7756C13.54 10.509 13.3851 10.2661 13.1832 10.0632C12.9814 9.86042 12.7373 9.7025 12.4676 9.60021C12.1978 9.49792 11.9088 9.45365 11.62 9.47041C11.3326 9.46326 11.0469 9.51596 10.7819 9.62503C10.5169 9.73409 10.2785 9.89703 10.0826 10.103C9.88673 10.3091 9.73778 10.5535 9.64563 10.8201C9.55348 11.0867 9.52022 11.3694 9.54808 11.6496V17.1317C9.54808 18.2007 8.86209 17.9814 7.9101 17.9814C6.95812 17.9814 6.28613 18.2007 6.28613 17.1317V6.85268Z" fill="#06275F"/>
</svg>
