<svg width="31" height="22" viewBox="0 0 31 22" fill="none" xmlns="http://www.w3.org/2000/svg">
<path d="M0.200195 10.6C0.500195 9.89998 1.00017 9.59998 1.80017 9.59998C10.7002 9.59998 19.7002 9.59998 28.6002 9.59998C29.3002 9.59998 29.8002 9.89998 30.0002 10.5C30.2002 11.3 29.7002 12.1 28.9002 12.1C28.8002 12.1 28.7002 12.1 28.6002 12.1C19.7002 12.1 10.7002 12.1 1.80017 12.1C1.00017 12.1 0.500171 11.8 0.300171 11.1C0.200171 10.9 0.200195 10.8 0.200195 10.6Z" fill="#002663"/>
<path d="M0.200195 0.999977C0.300195 0.799977 0.400189 0.499979 0.600189 0.399979C0.800189 0.199979 1.10018 0.0999756 1.40018 0.0999756C1.50018 0.0999756 1.60019 0.0999756 1.60019 0.0999756C10.6002 0.0999756 19.6002 0.0999756 28.6002 0.0999756C29.4002 0.0999756 29.8002 0.399976 30.0002 1.09998C30.2002 1.79998 29.6002 2.49998 28.9002 2.59998C28.8002 2.59998 28.6002 2.59998 28.5002 2.59998C19.6002 2.59998 10.7002 2.59998 1.80017 2.59998C1.00017 2.59998 0.500195 2.39998 0.200195 1.59998C0.200195 1.39998 0.200195 1.19998 0.200195 0.999977Z" fill="#002663"/>
<path d="M0.200195 20.2C0.500195 19.4 0.800195 19.2 1.7002 19.2C10.7002 19.2 19.7002 19.2 28.7002 19.2C29.5002 19.2 30.1002 19.8 30.1002 20.5C30.1002 21.1 29.6002 21.6 29.0002 21.7C28.8002 21.7 28.7002 21.7 28.5002 21.7C19.6002 21.7 10.7002 21.7 1.80017 21.7C1.00017 21.7 0.500195 21.5 0.200195 20.7C0.200195 20.5 0.200195 20.3 0.200195 20.2Z" fill="#002663"/>
</svg>
